<?xml version="1.0" encoding="utf-8"?>
<!-- Generator: Adobe Illustrator 16.0.0, SVG Export Plug-In . SVG Version: 6.00 Build 0)  -->
<!DOCTYPE svg PUBLIC "-//W3C//DTD SVG 1.1//EN" "http://www.w3.org/Graphics/SVG/1.1/DTD/svg11.dtd">
<svg version="1.1" id="Layer_1" xmlns="http://www.w3.org/2000/svg" xmlns:xlink="http://www.w3.org/1999/xlink" x="0px" y="0px"
	 width="13px" height="13px" viewBox="0 0 13 13" enable-background="new 0 0 13 13" xml:space="preserve">
<g>
	<rect x="1" y="1" fill="#FFFFFF" width="11" height="11"/>
	<path fill="#C6C6C5" d="M0,13h13V0H0V13z M1,1h11v11H1V1z"/>
</g>
<path fill="#66665F" d="M13,0.697c-0.004-0.009-0.008-0.018-0.012-0.027c-0.706,0.438-1.398,0.9-2.066,1.395
	C8.91,3.563,7.061,5.284,5.44,7.2C4.459,6.436,3.48,5.667,2.501,4.899C2.068,5.248,1.636,5.596,1.204,5.946
	c1.692,1.722,3.384,3.442,5.076,5.164c0.491-1.219,1.154-2.354,1.854-3.461c0.804-1.255,1.689-2.458,2.646-3.602
	C11.469,3.213,12.22,2.433,13,1.685V0.697z"/>
</svg>
