<?xml version="1.0" encoding="utf-8"?>
<!-- Generator: Adobe Illustrator 16.0.0, SVG Export Plug-In . SVG Version: 6.00 Build 0)  -->
<!DOCTYPE svg PUBLIC "-//W3C//DTD SVG 1.1//EN" "http://www.w3.org/Graphics/SVG/1.1/DTD/svg11.dtd">
<svg version="1.1" id="Layer_1" xmlns="http://www.w3.org/2000/svg" xmlns:xlink="http://www.w3.org/1999/xlink" x="0px" y="0px"
	 width="17px" height="17px" viewBox="0 0 17 17" enable-background="new 0 0 17 17" xml:space="preserve">
<g>
	<g>
		<path fill="#6F6F6F" d="M6.934,0.509C6.981,0.233,7.252,0.01,7.555,0.003C8.178-0.003,8.8,0.001,9.423,0.001
			c0.268,0.002,0.521,0.168,0.61,0.402c0.169,0.621,0.357,1.238,0.538,1.855c1.021,0.285,1.968,0.787,2.752,1.456
			c0.65-0.16,1.303-0.312,1.95-0.483c0.282-0.073,0.6,0.066,0.735,0.304c0.299,0.479,0.597,0.958,0.896,1.436
			c0.146,0.22,0.117,0.523-0.067,0.716c-0.48,0.441-0.961,0.884-1.437,1.33c0.245,0.973,0.245,1.996,0,2.968
			c0.482,0.453,0.971,0.901,1.457,1.35c0.157,0.187,0.191,0.458,0.063,0.667c-0.302,0.491-0.61,0.979-0.915,1.47
			c-0.111,0.192-0.342,0.313-0.575,0.318c-0.161-0.003-0.308-0.067-0.461-0.101c-0.55-0.134-1.1-0.271-1.649-0.403
			c-0.78,0.671-1.73,1.17-2.749,1.457c-0.181,0.616-0.368,1.23-0.536,1.85C9.949,16.831,9.687,17,9.415,16.999
			c-0.6,0.002-1.2,0.001-1.801,0c-0.289,0.013-0.573-0.168-0.656-0.426c-0.166-0.624-0.359-1.24-0.537-1.858
			c-0.994-0.29-1.915-0.79-2.677-1.447c-0.679,0.171-1.363,0.326-2.039,0.507c-0.267,0.06-0.562-0.068-0.699-0.286
			C0.698,13,0.395,12.511,0.09,12.022c-0.149-0.226-0.105-0.537,0.09-0.727c0.498-0.457,0.992-0.917,1.488-1.376
			c-0.223-0.931-0.223-1.907,0-2.839c-0.496-0.459-0.99-0.918-1.488-1.375c-0.198-0.189-0.241-0.5-0.092-0.726
			c0.292-0.472,0.587-0.94,0.879-1.411c0.13-0.248,0.447-0.41,0.742-0.341c0.675,0.178,1.356,0.335,2.034,0.505
			C4.506,3.077,5.426,2.576,6.42,2.288C6.59,1.694,6.774,1.104,6.934,0.509z M8.059,5.705C7.114,5.838,6.256,6.413,5.825,7.202
			c-0.372,0.654-0.442,1.445-0.2,2.148c0.235,0.701,0.778,1.307,1.479,1.648c0.617,0.306,1.351,0.408,2.037,0.279
			c0.843-0.151,1.604-0.65,2.037-1.337c0.389-0.603,0.517-1.341,0.359-2.026c-0.168-0.754-0.687-1.437-1.402-1.833
			C9.521,5.733,8.77,5.594,8.059,5.705z"/>
	</g>
</g>
</svg>
