<?xml version="1.0" encoding="utf-8"?>
<!-- Generator: Adobe Illustrator 16.0.0, SVG Export Plug-In . SVG Version: 6.00 Build 0)  -->
<!DOCTYPE svg PUBLIC "-//W3C//DTD SVG 1.1//EN" "http://www.w3.org/Graphics/SVG/1.1/DTD/svg11.dtd">
<svg version="1.1" id="Layer_1" xmlns="http://www.w3.org/2000/svg" xmlns:xlink="http://www.w3.org/1999/xlink" x="0px" y="0px"
	 width="91px" height="31px" viewBox="-51.052 -35 91 31" enable-background="new -51.052 -35 91 31" xml:space="preserve">
<g>
	<path fill="#EA4436" d="M-12.165-9.828l-2.556-1.885c-0.108,0.29-0.223,0.538-0.347,0.745c-0.37,0.605-0.962,1.076-1.772,1.412
		c-1.042,0.433-2.036,0.447-2.982,0.049c-0.95-0.41-1.708-1.175-2.274-2.298l10.108-4.188l-0.305-0.773
		c-0.962-2.326-2.315-3.899-4.057-4.716c-1.754-0.824-3.669-0.803-5.744,0.056c-0.856,0.354-1.591,0.801-2.209,1.333
		c-0.525,0.452-0.965,0.97-1.318,1.553c-0.821,1.257-1.298,2.759-1.298,4.372c0,3.065,1.72,5.728,4.246,7.076
		c0.323,0.217,0.662,0.404,1.018,0.567c1.834,0.823,3.803,0.799,5.907-0.072c0.734-0.304,1.383-0.662,1.946-1.078
		c0.563-0.415,1.045-0.901,1.449-1.458c0.13-0.181,0.25-0.37,0.366-0.569L-12.165-9.828z M-22.983-14.561
		c-0.063-0.449-0.059-0.875,0.013-1.279c0.07-0.403,0.201-0.777,0.393-1.122c0.19-0.346,0.435-0.65,0.732-0.913
		c0.297-0.263,0.644-0.478,1.04-0.643c1.737-0.721,3.193-0.306,4.366,1.245L-22.983-14.561z"/>
	<path fill="#F9BB15" d="M2.127-33.173H5.67v26.471H2.127v-1.599C0.737-6.942-0.834-6.261-2.59-6.261
		c-2.089,0-3.825-0.764-5.203-2.289c-1.369-1.557-2.053-3.5-2.053-5.833c0-2.277,0.685-4.179,2.053-5.705
		c1.357-1.536,3.067-2.303,5.125-2.303c1.786,0,3.386,0.73,4.797,2.193v-12.976H2.127z M-6.243-14.383
		c0,1.464,0.392,2.655,1.176,3.574c0.805,0.931,1.819,1.395,3.04,1.395c1.307,0,2.361-0.448,3.166-1.347
		c0.804-0.931,1.208-2.11,1.208-3.541c0-1.432-0.404-2.613-1.208-3.543c-0.806-0.909-1.849-1.363-3.133-1.363
		c-1.213,0-2.228,0.458-3.041,1.379C-5.84-16.901-6.243-15.751-6.243-14.383z"/>
	<path fill="#547DBF" d="M19.671-33.173h3.542v26.471h-3.542v-1.599c-1.39,1.359-2.962,2.041-4.718,2.041
		c-2.09,0-3.824-0.764-5.204-2.289c-1.368-1.557-2.053-3.5-2.053-5.833c0-2.277,0.684-4.179,2.053-5.705
		c1.358-1.536,3.068-2.303,5.125-2.303c1.786,0,3.386,0.73,4.796,2.193V-33.173z M11.302-14.383c0,1.464,0.392,2.655,1.175,3.574
		c0.806,0.931,1.82,1.395,3.04,1.395c1.306,0,2.362-0.448,3.165-1.347c0.806-0.931,1.208-2.11,1.208-3.541
		c0-1.432-0.403-2.613-1.208-3.543c-0.803-0.909-1.849-1.363-3.134-1.363c-1.212,0-2.226,0.458-3.041,1.379
		C11.704-16.901,11.302-15.751,11.302-14.383z"/>
	<path fill="#34A953" d="M25.731-28.316c0-0.615,0.224-1.147,0.673-1.597c0.448-0.448,0.988-0.674,1.615-0.674
		c0.637,0,1.18,0.226,1.631,0.674c0.448,0.438,0.672,0.977,0.672,1.614c0,0.637-0.225,1.181-0.672,1.63
		c-0.44,0.449-0.978,0.672-1.615,0.672c-0.638,0-1.182-0.224-1.631-0.672C25.955-27.119,25.731-27.667,25.731-28.316z M29.79-21.968
		v15.265h-3.526v-15.265H29.79z"/>
	<path fill="#EA4436" d="M37.206-18.678v11.975h-3.528v-11.975h-1.503v-3.29h1.503v-5.596h3.528v5.596h2.743v3.29H37.206z"/>
	<g enable-background="new    ">
		<path fill="#547DBF" d="M-38.03-18.278h9.538v0.763c0,1.734-0.204,3.269-0.613,4.604c-0.399,1.236-1.072,2.392-2.018,3.468
			c-2.143,2.412-4.869,3.618-8.178,3.618c-3.229,0-5.995-1.167-8.297-3.498c-2.302-2.342-3.454-5.152-3.454-8.432
			c0-3.348,1.171-6.189,3.514-8.521c2.342-2.342,5.192-3.513,8.551-3.513c1.803,0,3.488,0.369,5.052,1.107
			c1.495,0.737,2.965,1.933,4.41,3.587l-2.481,2.377c-1.894-2.522-4.201-3.783-6.921-3.783c-2.442,0-4.49,0.842-6.145,2.527
			c-1.654,1.654-2.481,3.728-2.481,6.219c0,2.572,0.922,4.689,2.766,6.353c1.724,1.545,3.593,2.318,5.606,2.318
			c1.714,0,3.253-0.579,4.619-1.734c1.365-1.167,2.127-2.562,2.287-4.187h-5.755V-18.278z"/>
	</g>
</g>
</svg>
