<?xml version="1.0" encoding="utf-8"?>
<!-- Generator: Adobe Illustrator 16.0.0, SVG Export Plug-In . SVG Version: 6.00 Build 0)  -->
<!DOCTYPE svg PUBLIC "-//W3C//DTD SVG 1.1//EN" "http://www.w3.org/Graphics/SVG/1.1/DTD/svg11.dtd">
<svg version="1.1" id="Layer_1" xmlns="http://www.w3.org/2000/svg" xmlns:xlink="http://www.w3.org/1999/xlink" x="0px" y="0px"
	 width="91px" height="31px" viewBox="0 0 91 31" enable-background="new 0 0 91 31" xml:space="preserve">
<g>
	<path fill="#EA4436" d="M38.886,25.172l-2.556-1.885c-0.108,0.289-0.223,0.537-0.347,0.744c-0.37,0.605-0.962,1.076-1.772,1.412
		c-1.042,0.434-2.036,0.447-2.982,0.049c-0.95-0.41-1.708-1.175-2.274-2.298l10.108-4.188l-0.305-0.772
		c-0.962-2.326-2.315-3.899-4.057-4.716c-1.754-0.824-3.669-0.803-5.744,0.056c-0.856,0.354-1.591,0.801-2.209,1.333
		c-0.525,0.452-0.965,0.97-1.318,1.552c-0.821,1.258-1.298,2.76-1.298,4.373c0,3.064,1.72,5.728,4.246,7.076
		c0.323,0.217,0.662,0.403,1.018,0.566c1.834,0.822,3.803,0.799,5.907-0.072c0.734-0.304,1.383-0.662,1.946-1.078
		c0.562-0.414,1.045-0.9,1.449-1.457c0.13-0.182,0.25-0.371,0.366-0.57L38.886,25.172z M28.068,20.438
		c-0.063-0.448-0.059-0.875,0.013-1.278c0.07-0.404,0.201-0.777,0.393-1.123c0.19-0.346,0.435-0.65,0.732-0.912
		c0.297-0.264,0.644-0.479,1.04-0.644c1.737-0.721,3.193-0.306,4.366,1.245L28.068,20.438z"/>
	<path fill="#F9BB15" d="M53.178,1.827h3.543v26.47h-3.543v-1.598c-1.391,1.358-2.961,2.039-4.717,2.039
		c-2.09,0-3.825-0.764-5.203-2.289c-1.369-1.557-2.053-3.5-2.053-5.832c0-2.277,0.685-4.18,2.053-5.706
		c1.357-1.536,3.066-2.303,5.125-2.303c1.786,0,3.386,0.73,4.797,2.193V1.826L53.178,1.827L53.178,1.827z M44.808,20.617
		c0,1.463,0.392,2.654,1.176,3.573c0.805,0.931,1.819,1.396,3.04,1.396c1.307,0,2.361-0.449,3.166-1.348
		c0.805-0.931,1.209-2.109,1.209-3.541s-0.404-2.613-1.209-3.543c-0.806-0.908-1.849-1.363-3.133-1.363
		c-1.213,0-2.229,0.458-3.041,1.378C45.211,18.099,44.808,19.248,44.808,20.617z"/>
	<path fill="#547DBF" d="M70.722,1.827h3.542v26.47h-3.542v-1.598c-1.39,1.358-2.962,2.041-4.718,2.041
		c-2.09,0-3.824-0.765-5.204-2.289c-1.368-1.558-2.054-3.5-2.054-5.834c0-2.277,0.685-4.179,2.054-5.705
		c1.358-1.536,3.067-2.303,5.125-2.303c1.786,0,3.386,0.73,4.796,2.193L70.722,1.827L70.722,1.827z M62.353,20.617
		c0,1.463,0.392,2.654,1.175,3.573c0.807,0.931,1.82,1.396,3.041,1.396c1.306,0,2.361-0.449,3.164-1.348
		c0.807-0.931,1.209-2.109,1.209-3.541s-0.404-2.613-1.209-3.543c-0.803-0.908-1.849-1.363-3.134-1.363
		c-1.212,0-2.226,0.458-3.041,1.378C62.755,18.099,62.353,19.248,62.353,20.617z"/>
	<path fill="#34A953" d="M76.781,6.684c0-0.615,0.225-1.147,0.674-1.597c0.447-0.448,0.988-0.674,1.615-0.674
		c0.637,0,1.18,0.226,1.631,0.674c0.447,0.438,0.672,0.977,0.672,1.614c0,0.637-0.225,1.181-0.672,1.63
		c-0.44,0.449-0.979,0.672-1.615,0.672c-0.639,0-1.182-0.224-1.631-0.672C77.006,7.88,76.781,7.333,76.781,6.684z M80.841,13.032
		v15.265h-3.526V13.032H80.841z"/>
	<path fill="#EA4436" d="M88.257,16.322v11.975h-3.528V16.322h-1.503v-3.291h1.503V7.436h3.528v5.596H91v3.291H88.257z"/>
	<g enable-background="new    ">
		<path fill="#547DBF" d="M13.021,16.722h9.538v0.763c0,1.734-0.204,3.27-0.613,4.604c-0.399,1.236-1.072,2.393-2.018,3.469
			c-2.143,2.412-4.869,3.617-8.178,3.617c-3.229,0-5.995-1.166-8.297-3.498c-2.302-2.342-3.454-5.151-3.454-8.432
			c0-3.348,1.171-6.188,3.514-8.521C5.855,6.381,8.705,5.21,12.064,5.21c1.803,0,3.488,0.369,5.052,1.107
			c1.495,0.737,2.965,1.933,4.41,3.587l-2.481,2.377c-1.894-2.522-4.201-3.783-6.921-3.783c-2.442,0-4.49,0.842-6.145,2.527
			c-1.654,1.654-2.481,3.728-2.481,6.219c0,2.572,0.922,4.689,2.766,6.354c1.724,1.545,3.593,2.318,5.606,2.318
			c1.714,0,3.253-0.58,4.619-1.734c1.365-1.167,2.127-2.562,2.287-4.188h-5.755V16.722z"/>
	</g>
</g>
</svg>
