<?xml version="1.0" encoding="utf-8"?>
<!-- Generator: Adobe Illustrator 16.0.0, SVG Export Plug-In . SVG Version: 6.00 Build 0)  -->
<!DOCTYPE svg PUBLIC "-//W3C//DTD SVG 1.1//EN" "http://www.w3.org/Graphics/SVG/1.1/DTD/svg11.dtd">
<svg version="1.1" id="Layer_1" xmlns="http://www.w3.org/2000/svg" xmlns:xlink="http://www.w3.org/1999/xlink" x="0px" y="0px"
	 width="14.999px" height="15.43px" viewBox="0 0.017 14.999 15.43" enable-background="new 0 0.017 14.999 15.43"
	 xml:space="preserve">
<path fill="#FFFFFF" d="M14.669,13.502l-4.416-4.418c0.277-0.382,0.491-0.752,0.648-1.122c0.489-1.125,0.601-2.402,0.311-3.594
	c-0.308-1.292-1.101-2.48-2.174-3.256c-1.066-0.791-2.46-1.186-3.776-1.08C4.312,0.102,3.391,0.412,2.604,0.927
	C1.566,1.593,0.76,2.605,0.334,3.778c-0.349,0.965-0.427,2.013-0.227,3.028c0.25,1.286,0.951,2.456,1.973,3.292
	c0.871,0.718,1.966,1.166,3.079,1.265c1.167,0.11,2.37-0.158,3.391-0.75l4.539,4.537c0.201,0.19,0.472,0.296,0.763,0.296
	c0.34,0,0.657-0.144,0.854-0.379C15.111,14.625,15.09,13.906,14.669,13.502z M8.891,6.828C8.619,7.605,8.046,8.281,7.318,8.679
	C6.82,8.954,6.254,9.098,5.683,9.098c-0.168,0-0.336-0.013-0.506-0.04C4.404,8.945,3.664,8.542,3.145,7.953
	C2.636,7.379,2.327,6.624,2.298,5.87C2.248,5.059,2.514,4.228,3.03,3.588c0.558-0.703,1.378-1.162,2.253-1.258
	c0.135-0.017,0.271-0.025,0.405-0.025c0.547,0,1.087,0.132,1.564,0.385c0.803,0.412,1.435,1.175,1.69,2.045
	C9.146,5.419,9.128,6.161,8.891,6.828z"/>
</svg>
