<?xml version="1.0" encoding="utf-8"?>
<!-- Generator: Adobe Illustrator 16.0.0, SVG Export Plug-In . SVG Version: 6.00 Build 0)  -->
<!DOCTYPE svg PUBLIC "-//W3C//DTD SVG 1.1//EN" "http://www.w3.org/Graphics/SVG/1.1/DTD/svg11.dtd">
<svg version="1.1" id="Layer_1" xmlns="http://www.w3.org/2000/svg" xmlns:xlink="http://www.w3.org/1999/xlink" x="0px" y="0px"
	 width="20px" height="20px" viewBox="0 0 20 20" enable-background="new 0 0 20 20" xml:space="preserve">
<circle fill="#D9453D" cx="10" cy="10" r="10"/>
<g>
	<path fill="#FFFFFF" d="M10.352,11.79c-0.178,0.195-0.521,0.196-0.703,0.004c-0.412-0.372-0.81-0.753-1.222-1.124
		c-1.454,1.327-2.899,2.668-4.343,4.008c3.944,0,7.888,0,11.831,0c-1.441-1.341-2.89-2.677-4.342-4.008
		C11.163,11.039,10.762,11.418,10.352,11.79z"/>
	<path fill="#FFFFFF" d="M3.308,5.934c0,2.705,0,5.407,0,8.113c1.464-1.351,2.933-2.699,4.389-4.056
		C6.231,8.642,4.77,7.289,3.308,5.934z"/>
	<path fill="#FFFFFF" d="M15.908,5.322c-3.938,0-7.877,0-11.818,0c1.969,1.82,3.94,3.637,5.907,5.459
		C11.97,8.96,13.939,7.141,15.908,5.322z"/>
	<path fill="#FFFFFF" d="M16.692,14.049c-0.006-2.706-0.002-5.41-0.002-8.113c-1.46,1.353-2.925,2.705-4.39,4.059
		C13.761,11.351,15.224,12.701,16.692,14.049z"/>
</g>
</svg>
