<?xml version="1.0" encoding="utf-8"?>
<!-- Generator: Adobe Illustrator 16.0.0, SVG Export Plug-In . SVG Version: 6.00 Build 0)  -->
<!DOCTYPE svg PUBLIC "-//W3C//DTD SVG 1.1//EN" "http://www.w3.org/Graphics/SVG/1.1/DTD/svg11.dtd">
<svg version="1.1" id="Layer_1" xmlns="http://www.w3.org/2000/svg" xmlns:xlink="http://www.w3.org/1999/xlink" x="0px" y="0px"
	 width="143px" height="57px" viewBox="-26 -13.02 143 57" enable-background="new -26 -13.02 143 57" xml:space="preserve">
<g>
	<path fill="#F48024" d="M-4.771,16.724C4.507-6.208,30.123-10.324,45.493,1.384c-1.488,1.506-2.979,3.014-4.467,4.524
		c5.85,0.783,16.339,4.827,22.976,10.819c2.126-9.765,0.098-20.531-5.691-28.302c-1.489,1.507-2.981,3.014-4.473,4.522
		C32.53-19.904,2.028-10.998-4.771,16.724L-4.771,16.724z"/>
	<g>
		<g>
			<g>
				<g>
					<path fill="#11B5E9" d="M70.05,33.602h-0.052c-1.031,1.345-2.588,2.059-4.279,2.059c-3.644,0-5.945-3.09-5.945-6.521
						c0-3.544,2.248-6.582,5.973-6.582c1.664,0,3.247,0.796,4.252,2.11h0.052v-9.4h2.11v20.046h-2.11V33.602z M61.939,28.975
						c0,2.431,1.426,4.729,4.07,4.729c2.719,0,4.146-2.19,4.146-4.703c0-2.482-1.559-4.489-4.17-4.489
						C63.526,24.511,61.939,26.649,61.939,28.975z"/>
				</g>
			</g>
			<g>
				<path fill="#11B5E9" d="M77.342,18.221c0,0.851-0.689,1.509-1.506,1.509c-0.818,0-1.509-0.658-1.509-1.509
					c0-0.814,0.69-1.508,1.509-1.508C76.652,16.713,77.342,17.407,77.342,18.221z"/>
			</g>
			<g>
				<rect x="74.779" y="22.9" fill="#11B5E9" width="2.108" height="12.415"/>
			</g>
			<g>
				<g>
					<path fill="#11B5E9" d="M81.831,24.247h0.05c0.741-0.979,1.372-1.69,2.746-1.69c0.717,0,1.298,0.236,1.905,0.579l-1.003,1.931
						c-0.425-0.29-0.718-0.555-1.271-0.555c-2.323,0-2.427,2.984-2.427,4.597v6.207h-2.114V22.9h2.114V24.247L81.831,24.247z"/>
				</g>
			</g>
			<g>
				<g>
					<path fill="#11B5E9" d="M88.253,29.556c0.023,2.302,1.662,4.151,4.067,4.151c1.798,0,2.957-1.085,3.777-2.562l1.794,1.032
						c-1.187,2.216-3.196,3.483-5.73,3.483c-3.701,0-6.077-2.827-6.077-6.395c0-3.67,2.137-6.708,6.025-6.708
						c3.988,0,6.101,3.305,5.894,6.998H88.253z M95.779,27.76c-0.289-1.794-1.796-3.249-3.646-3.249
						c-1.82,0-3.513,1.455-3.775,3.249H95.779z"/>
				</g>
			</g>
			<g>
				<g>
					<path fill="#11B5E9" d="M109.773,26.598h-0.053c-0.975-1.243-2.19-2.087-3.857-2.087c-2.561,0-4.384,2.112-4.384,4.597
						c0,2.458,1.688,4.596,4.278,4.596c1.772,0,3.01-0.794,4.041-2.138h0.053v2.824c-1.217,0.821-2.457,1.269-3.937,1.269
						c-3.751,0-6.603-2.802-6.603-6.551c0-3.699,2.985-6.552,6.633-6.552c1.342,0,2.721,0.447,3.83,1.24v2.802H109.773z"/>
				</g>
			</g>
			<g>
				<g>
					<path fill="#11B5E9" d="M114.783,35.315h-2.116v-10.46h-1.292V22.9h1.292v-6.231h2.116V22.9h2.215v1.955h-2.215V35.315z"/>
				</g>
			</g>
		</g>
	</g>
	<g>
		<g>
			<g>
				<g>
					<path fill="#11B5E9" d="M-25.998,16.826h4.818l8.821,11.335h0.05V16.826h4.817v18.538h-4.817l-8.822-11.356h-0.049v11.354
						h-4.818V16.826z"/>
				</g>
			</g>
			<g>
				<g>
					<path fill="#11B5E9" d="M8.827,29.068c0,4.274-3.539,6.712-7.594,6.712c-4.031,0-7.593-2.407-7.593-6.712
						c0-4.303,3.54-6.732,7.593-6.732C5.288,22.335,8.827,24.765,8.827,29.068z M-1.644,29.068c0,1.598,1.056,2.827,2.875,2.827
						c1.816,0,2.874-1.229,2.874-2.827c0-1.547-1.058-2.852-2.874-2.852C-0.587,26.216-1.644,27.521-1.644,29.068z"/>
				</g>
			</g>
			<g>
				<g>
					<path fill="#11B5E9" d="M14.658,24.815h0.049c0.862-1.547,2.335-2.233,4.079-2.233h0.86v4.3
						c-0.613-0.344-1.204-0.419-1.891-0.419c-2.484,0-3.098,1.648-3.098,3.811v5.089h-4.473V22.753h4.472v2.062H14.658z"/>
				</g>
			</g>
			<g>
				<g>
					<path fill="#11B5E9" d="M34.992,23.049c-0.981-1.329-2.577-2.044-4.228-2.044c-2.949,0-4.94,2.263-4.94,5.142
						c0,2.925,2.017,5.04,5.013,5.04c1.576,0,3.149-0.765,4.155-1.969v5.779c-1.597,0.489-2.751,0.857-4.251,0.857
						c-2.58,0-5.039-0.979-6.956-2.727c-2.04-1.845-2.974-4.25-2.974-7.005c0-2.53,0.958-4.965,2.727-6.787
						c1.821-1.865,4.45-3.001,7.054-3.001c1.55,0,2.974,0.346,4.398,0.938v5.775H34.992z"/>
				</g>
			</g>
			<g>
				<g>
					<path fill="#11B5E9" d="M51.318,35.362h-4.468V33.96h-0.052c-0.787,1.257-2.331,1.819-3.805,1.819
						c-3.731,0-6.36-3.123-6.36-6.733c0-3.616,2.579-6.711,6.31-6.711c1.449,0,2.97,0.539,3.907,1.647v-1.229h4.468V35.362z
						 M41.251,29.068c0,1.598,1.054,2.827,2.871,2.827c1.815,0,2.871-1.229,2.871-2.827c0-1.547-1.056-2.852-2.871-2.852
						C42.305,26.216,41.251,27.521,41.251,29.068z"/>
				</g>
			</g>
			<g>
				<g>
					<path fill="#11B5E9" d="M57.783,35.362h-4.475V15.3h4.475V35.362z"/>
				</g>
			</g>
		</g>
	</g>
	<path fill="#F48024" d="M38.253,38.168h1.392l1.105,2.92l1.166-2.92h1.403l0.819,5.466h-1.409l-0.399-3.148H42.32l-1.306,3.148
		h-0.562l-1.245-3.148h-0.013l-0.458,3.148h-1.405L38.253,38.168z"/>
	<path fill="#F48024" d="M47.562,42.684l-0.375,0.95h-1.499l2.091-5.466h1.552l2.062,5.466h-1.515l-0.357-0.95H47.562z
		 M48.556,39.857h-0.013l-0.594,1.736h1.185L48.556,39.857z"/>
	<path fill="#F48024" d="M57.829,43.634h-1.769l-1.342-2.104h-0.017v2.104h-1.421v-5.466h2.125c1.083,0,1.901,0.513,1.901,1.68
		c0,0.752-0.418,1.409-1.197,1.544L57.829,43.634z M54.702,40.616h0.14c0.461,0,0.982-0.091,0.982-0.682
		c0-0.592-0.521-0.684-0.982-0.684h-0.14V40.616z"/>
	<path fill="#F48024" d="M62.818,38.168h1.761l-2.172,2.585l2.368,2.881h-1.843L61.1,41.261h-0.018v2.373h-1.417v-5.466h1.417v2.253
		H61.1L62.818,38.168z"/>
	<path fill="#F48024" d="M68.028,39.367v0.915h1.604v1.201h-1.604v0.947h1.69v1.204h-3.111v-5.466h3.111v1.198H68.028z"/>
	<path fill="#F48024" d="M74.219,43.634h-1.421v-4.268h-1.174v-1.198h3.771v1.198h-1.176V43.634z"/>
	<path fill="#F48024" d="M78.782,43.634h-1.421v-5.466h1.421V43.634z"/>
	<path fill="#F48024" d="M81.16,38.168h1.421l2.602,3.34h0.015v-3.34h1.423v5.466h-1.423l-2.605-3.353h-0.011v3.353H81.16V38.168z"
		/>
	<path fill="#F48024" d="M93.394,40.579c-0.016,0.803-0.074,1.478-0.561,2.164c-0.536,0.741-1.34,1.076-2.254,1.076
		c-1.715,0-2.914-1.175-2.914-2.888c0-1.782,1.201-2.943,2.967-2.943c1.12,0,1.99,0.506,2.462,1.529l-1.346,0.564
		c-0.194-0.521-0.611-0.872-1.183-0.872c-0.935,0-1.419,0.894-1.419,1.729c0,0.845,0.506,1.71,1.443,1.71
		c0.611,0,1.087-0.318,1.145-0.949h-1.162v-1.116h2.821V40.579z"/>
	<g>
		<path fill="#F48024" d="M100.079,38.109v5.519h-1.533v-5.519H100.079z"/>
		<path fill="#F48024" d="M102.327,43.627v-5.519h1.792l1.41,2.02c0.403,0.582,0.799,1.272,1.107,1.897h0.02
			c-0.089-0.73-0.119-1.479-0.119-2.312v-1.604h1.411v5.519h-1.611l-1.453-2.13c-0.405-0.598-0.855-1.305-1.178-1.95h-0.041
			c0.052,0.738,0.072,1.52,0.072,2.418v1.662H102.327z"/>
	</g>
	<g>
		<path fill="#F48024" d="M114.279,43.589c-0.273,0.109-0.917,0.236-1.732,0.236c-2.348,0-3.555-1.192-3.555-2.779
			c0-1.881,1.65-2.923,3.705-2.923c0.797,0,1.404,0.132,1.676,0.246l-0.325,0.983c-0.304-0.107-0.732-0.204-1.29-0.204
			c-1.208,0-2.158,0.594-2.158,1.834c0,1.107,0.808,1.805,2.169,1.805c0.472,0,0.976-0.075,1.289-0.183L114.279,43.589z"/>
	</g>
	<g>
		<path fill="#F48024" d="M116.05,43.822c-0.511,0-0.883-0.318-0.883-0.754c0-0.448,0.372-0.761,0.907-0.761
			c0.522,0,0.883,0.304,0.894,0.761c0,0.436-0.36,0.754-0.903,0.754H116.05z"/>
	</g>
</g>
</svg>
