<?xml version="1.0" encoding="utf-8"?>
<!-- Generator: Adobe Illustrator 16.0.0, SVG Export Plug-In . SVG Version: 6.00 Build 0)  -->
<!DOCTYPE svg PUBLIC "-//W3C//DTD SVG 1.1//EN" "http://www.w3.org/Graphics/SVG/1.1/DTD/svg11.dtd">
<svg version="1.1" id="Layer_1" xmlns="http://www.w3.org/2000/svg" xmlns:xlink="http://www.w3.org/1999/xlink" x="0px" y="0px"
	 width="16px" height="8px" viewBox="0 0 16 8" enable-background="new 0 0 16 8" xml:space="preserve">
<path fill="#313131" d="M15.59,1.498c-0.537-0.906-1.592-1.491-2.671-1.496c-2.92-0.004-5.841,0-8.761-0.001
	C3.224,0.001,2.294,0.316,1.567,0.883c-0.591,0.462-1.07,1.069-1.323,1.765C-0.067,3.451-0.071,4.35,0.176,5.17
	C0.443,5.976,0.97,6.702,1.677,7.204c0.565,0.396,1.227,0.677,1.925,0.755C4.007,8.013,4.416,7.997,4.823,8c2.051,0,4.101,0,6.152,0
	c0.158,0.005,0.316-0.079,0.389-0.215c0.12-0.194,0.029-0.489-0.196-0.569c-0.071-0.028-0.148-0.036-0.224-0.036
	c-2.207,0.001-4.413,0-6.62,0C3.959,7.184,3.591,7.15,3.238,7.054C2.385,6.809,1.634,6.232,1.224,5.465
	C0.94,4.97,0.829,4.395,0.852,3.833c0.045-0.852,0.477-1.67,1.144-2.226c0.591-0.504,1.375-0.785,2.163-0.787
	c2.911,0.001,5.823-0.001,8.734,0c0.744,0,1.477,0.373,1.889,0.973c0.356,0.508,0.476,1.178,0.275,1.763
	c-0.173,0.595-0.653,1.083-1.225,1.344c-0.264,0.102-0.541,0.184-0.826,0.2c-2.783-0.001-5.565,0.001-8.348,0
	c-0.314-0.005-0.636,0.025-0.94-0.068c-0.63-0.167-1.054-0.861-0.878-1.472c0.131-0.539,0.669-0.939,1.236-0.963
	c2.633,0,5.266,0,7.899,0c0.269,0.013,0.5-0.265,0.416-0.515c-0.037-0.197-0.245-0.313-0.442-0.305c-2.653,0-5.305-0.001-7.958,0
	C3.43,1.828,2.881,2.064,2.508,2.476C2.195,2.791,2.02,3.212,1.957,3.64c-0.037,0.446,0.06,0.908,0.314,1.287
	c0.351,0.546,0.973,0.924,1.636,0.981C4.083,5.927,4.26,5.921,4.435,5.922c2.819,0,5.638,0,8.457,0
	c0.651-0.005,1.301-0.205,1.827-0.578c0.612-0.424,1.064-1.067,1.218-1.782C16.086,2.865,15.971,2.11,15.59,1.498z"/>
</svg>
