<?xml version="1.0" encoding="utf-8"?>
<!-- Generator: Adobe Illustrator 16.0.0, SVG Export Plug-In . SVG Version: 6.00 Build 0)  -->
<!DOCTYPE svg PUBLIC "-//W3C//DTD SVG 1.1//EN" "http://www.w3.org/Graphics/SVG/1.1/DTD/svg11.dtd">
<svg version="1.1" id="Layer_1" xmlns="http://www.w3.org/2000/svg" xmlns:xlink="http://www.w3.org/1999/xlink" x="0px" y="0px"
	 width="32px" height="32px" viewBox="0 0 32 32" enable-background="new 0 0 32 32" xml:space="preserve">
<circle fill="#CEE3F8" cx="16" cy="15.963" r="16"/>
<g>
	<ellipse fill="#FFFFFF" cx="19.057" cy="21.023" rx="2.999" ry="3.578"/>
	<path d="M19.057,17.445v0.027c1.639,0.004,2.973,1.588,2.973,3.551c0,1.967-1.334,3.549-2.973,3.553
		c-1.638-0.004-2.973-1.586-2.973-3.553c0-1.963,1.335-3.547,2.973-3.551V17.445V17.42c-1.674,0-3.022,1.617-3.025,3.604
		c0.003,1.988,1.352,3.604,3.025,3.605c1.675-0.002,3.022-1.617,3.025-3.605c-0.003-1.986-1.351-3.604-3.025-3.604V17.445z"/>
	<path fill="#FFFFFF" d="M14.35,28.328c0.047-0.125,0.069-0.264,0.069-0.412c0-0.914-0.922-1.656-2.064-1.656
		c-1.142,0-2.064,0.742-2.064,1.656c0,0.148,0.033,0.287,0.068,0.412H14.35z"/>
	<path d="M14.35,28.328l0.025,0.01c0.048-0.129,0.07-0.271,0.07-0.422c-0.001-0.934-0.938-1.682-2.091-1.684
		c-1.152,0.002-2.09,0.75-2.091,1.684c0,0.152,0.034,0.293,0.069,0.42l0.025,0.02h3.991l0.025-0.018L14.35,28.328v-0.025h-3.991
		v0.025l0.025-0.006c-0.035-0.125-0.068-0.262-0.068-0.406c0.002-0.895,0.908-1.631,2.039-1.631s2.036,0.736,2.039,1.631
		c0,0.146-0.023,0.281-0.067,0.404L14.35,28.328v-0.025V28.328z"/>
	<path fill="#FFFFFF" d="M21.572,28.328c0.046-0.125,0.068-0.264,0.068-0.412c0-0.914-0.923-1.656-2.063-1.656
		c-1.144,0-2.065,0.742-2.065,1.656c0,0.148,0.035,0.287,0.068,0.412H21.572z"/>
	<path d="M21.572,28.328l0.024,0.01c0.048-0.129,0.07-0.271,0.07-0.422c-0.001-0.934-0.938-1.682-2.09-1.684
		c-1.153,0.002-2.091,0.75-2.092,1.684c0,0.152,0.036,0.293,0.069,0.42l0.025,0.02h3.992l0.024-0.018L21.572,28.328v-0.025H17.58
		v0.025l0.025-0.006c-0.033-0.125-0.068-0.262-0.068-0.406c0.003-0.895,0.907-1.631,2.04-1.631c1.131,0,2.035,0.736,2.037,1.631
		c0,0.146-0.022,0.281-0.066,0.404L21.572,28.328v-0.025V28.328z"/>
	<ellipse fill="#FFFFFF" cx="8.501" cy="9.867" rx="1.834" ry="1.818"/>
	<path d="M8.501,8.05v0.026c0.999,0.002,1.806,0.803,1.808,1.791c-0.002,0.99-0.809,1.792-1.808,1.792
		c-0.998,0-1.806-0.802-1.808-1.792c0.002-0.988,0.81-1.789,1.808-1.791V8.05V8.024c-1.026,0-1.86,0.827-1.86,1.843
		c0,1.019,0.834,1.843,1.86,1.844c1.027-0.001,1.86-0.826,1.86-1.844c0-1.017-0.833-1.843-1.86-1.843V8.05z"/>
	<ellipse fill="#FFFFFF" cx="23.498" cy="9.867" rx="1.834" ry="1.818"/>
	<path d="M23.498,8.05v0.026c0.999,0.002,1.807,0.803,1.808,1.791c-0.001,0.99-0.809,1.792-1.808,1.792
		c-0.998,0-1.806-0.802-1.808-1.792c0.002-0.988,0.81-1.789,1.808-1.791V8.05V8.024c-1.027,0-1.86,0.827-1.86,1.843
		c0,1.019,0.833,1.843,1.86,1.844c1.027-0.001,1.86-0.826,1.86-1.844c0-1.017-0.833-1.843-1.86-1.843V8.05z"/>
	<path d="M21.094,3.463c0,0,0,0-3.668-0.857l-0.031,0.018l-1.351,4.218l0.018,0.033l0.032-0.017l1.352-4.218L17.42,2.632
		l-0.007,0.026c3.668,0.856,3.668,0.856,3.668,0.856l0.031-0.02L21.094,3.463z"/>
	<ellipse fill="#FFFFFF" cx="12.885" cy="21.023" rx="3.001" ry="3.578"/>
	<path d="M12.885,17.445v0.027c1.64,0.004,2.974,1.588,2.974,3.551c0,1.967-1.334,3.549-2.974,3.553
		c-1.638-0.004-2.973-1.586-2.973-3.553c0-1.963,1.335-3.547,2.973-3.551V17.445V17.42c-1.674,0-3.022,1.617-3.025,3.604
		c0.003,1.988,1.352,3.604,3.025,3.605c1.676-0.002,3.023-1.617,3.026-3.605c-0.003-1.986-1.351-3.604-3.026-3.604V17.445z"/>
	<ellipse fill="#FFFFFF" cx="22.574" cy="3.787" rx="1.442" ry="1.428"/>
	<path d="M22.574,2.359v0.026c0.783,0,1.414,0.627,1.416,1.401c-0.002,0.775-0.633,1.403-1.416,1.403
		c-0.781,0-1.413-0.628-1.415-1.403c0.002-0.774,0.634-1.401,1.415-1.401V2.359V2.333c-0.811,0.001-1.467,0.65-1.467,1.454
		c0,0.804,0.656,1.454,1.467,1.455c0.812-0.001,1.469-0.651,1.469-1.455c0-0.803-0.657-1.452-1.469-1.454V2.359z"/>
	<path fill="#FFFFFF" d="M14.95,28.328h2.03c1.801-0.926,3.137-4.264,3.137-8.242c0-4.697-1.855-8.504-4.152-8.504
		c-2.295,0-4.152,3.807-4.152,8.504C11.812,24.064,13.139,27.402,14.95,28.328z"/>
	<path d="M14.95,28.328v0.027h2.037l0.005-0.004c1.817-0.938,3.149-4.281,3.151-8.266c-0.003-4.702-1.852-8.523-4.179-8.53
		c-2.326,0.007-4.176,3.828-4.178,8.53c0.001,3.984,1.323,7.328,3.15,8.266l0.007,0.004h0.006V28.328l0.011-0.021
		c-1.794-0.916-3.123-4.246-3.122-8.221c0-2.344,0.465-4.467,1.213-6.002c0.749-1.535,1.781-2.477,2.913-2.476
		c1.133-0.001,2.164,0.94,2.914,2.476c0.749,1.535,1.212,3.658,1.212,6.002c0.002,3.975-1.338,7.305-3.122,8.221l0.012,0.021v-0.025
		h-2.03V28.328l0.011-0.021L14.95,28.328z"/>
	<ellipse fill="#FFFFFF" cx="15.954" cy="12.372" rx="8.307" ry="5.373"/>
	<path d="M15.954,6.999v0.026c2.289,0,4.361,0.6,5.859,1.57c1.498,0.968,2.421,2.305,2.421,3.776s-0.923,2.807-2.421,3.776
		s-3.57,1.571-5.859,1.571s-4.361-0.602-5.859-1.571s-2.421-2.305-2.421-3.776s0.923-2.808,2.421-3.776
		c1.498-0.97,3.57-1.57,5.859-1.57V6.999V6.973c-4.595,0-8.329,2.407-8.332,5.398c0.003,2.99,3.737,5.398,8.332,5.4
		c4.595-0.002,8.329-2.41,8.333-5.4c-0.004-2.992-3.738-5.398-8.333-5.398V6.999z"/>
	<polyline points="13.774,28.355 18.25,28.355 18.276,28.328 18.25,28.303 13.774,28.303 13.747,28.328 13.774,28.355 	"/>
	<path fill="#EF4A23" d="M13.08,9.982c-0.737,0-1.36,0.618-1.36,1.349s0.623,1.326,1.36,1.326c0.739,0,1.339-0.594,1.339-1.326
		S13.819,9.982,13.08,9.982z"/>
	<path fill="#EF4A23" d="M18.941,9.982c-0.738,0-1.361,0.618-1.361,1.349s0.623,1.326,1.361,1.326s1.339-0.594,1.339-1.326
		C20.268,10.6,19.68,9.982,18.941,9.982z"/>
	<path d="M13.108,14.857c0.737,0.729,1.908,0.866,2.88,0.867l0.027-0.026l-0.027-0.026c-0.968,0.001-2.125-0.139-2.842-0.85h-0.038
		V14.857z"/>
	<path d="M18.854,14.821c-0.718,0.711-1.876,0.851-2.842,0.85l-0.027,0.026l0.027,0.026c0.971-0.001,2.142-0.138,2.879-0.867v-0.036
		H18.854z"/>
</g>
</svg>
