<?xml version="1.0" encoding="utf-8"?>
<!-- Generator: Adobe Illustrator 16.0.0, SVG Export Plug-In . SVG Version: 6.00 Build 0)  -->
<!DOCTYPE svg PUBLIC "-//W3C//DTD SVG 1.1//EN" "http://www.w3.org/Graphics/SVG/1.1/DTD/svg11.dtd">
<svg version="1.1" id="Layer_1" xmlns="http://www.w3.org/2000/svg" xmlns:xlink="http://www.w3.org/1999/xlink" x="0px" y="0px"
	 width="14px" height="14px" viewBox="0 0 14 14" enable-background="new 0 0 14 14" xml:space="preserve">
<path fill="#6E6E6E" d="M13.451,5.67C13.634,4.092,13.818,2.516,14,0.937c-0.623,0.5-1.246,0.999-1.868,1.498
	c-0.818-0.966-1.898-1.705-3.094-2.095c-1.323-0.425-2.776-0.46-4.107-0.049c-1.255,0.379-2.395,1.132-3.25,2.137
	c-0.846,0.991-1.41,2.229-1.603,3.524c-0.197,1.293-0.02,2.642,0.495,3.841c0.696,1.634,2.025,2.985,3.647,3.667
	c0.645,0.281,1.336,0.439,2.035,0.506v0.005c0.027,0.003,0.054,0.001,0.081,0.004c0.173,0.014,0.345,0.022,0.519,0.024
	C6.936,14,7.018,14,7.1,13.999c0.087-0.001,0.174,0.005,0.262,0c0.093-0.009,0.186-0.026,0.278-0.037
	c0.033-0.004,0.067-0.002,0.101-0.007c0.041-0.004,0.08-0.016,0.121-0.021c0.183-0.025,0.364-0.061,0.544-0.1
	c0.102-0.023,0.203-0.051,0.304-0.079c0.093-0.026,0.189-0.041,0.28-0.073c0.089-0.028,0.174-0.064,0.261-0.097
	c0.028-0.011,0.056-0.02,0.083-0.031c0.468-0.179,0.918-0.405,1.337-0.683c0.019-0.012,0.04-0.022,0.059-0.035
	c0.068-0.048,0.133-0.104,0.201-0.154c0.08-0.059,0.163-0.113,0.24-0.174c-0.001-0.002-0.003-0.004-0.005-0.006
	c0.294-0.231,0.578-0.475,0.821-0.761c0.562-0.616,1.006-1.341,1.316-2.118c-0.598-0.245-1.195-0.487-1.792-0.732
	c-0.197,0.486-0.461,0.948-0.797,1.35c-0.223,0.274-0.477,0.521-0.753,0.738c-0.178,0.139-0.367,0.264-0.562,0.38
	c-0.064,0.038-0.131,0.072-0.198,0.107c-0.14,0.075-0.283,0.141-0.429,0.201c-0.081,0.034-0.161,0.071-0.243,0.1
	c-0.024,0.009-0.048,0.015-0.071,0.023c-0.15,0.05-0.302,0.096-0.457,0.132c-0.016,0.003-0.032,0.005-0.047,0.009
	c-0.153,0.034-0.309,0.062-0.465,0.08c-0.051,0.006-0.103,0.008-0.155,0.013c-0.124,0.011-0.247,0.02-0.371,0.021
	c-0.044,0-0.089-0.003-0.134-0.004c-0.179-0.003-0.359-0.015-0.537-0.039c-0.648-0.081-1.281-0.283-1.847-0.612
	c-0.719-0.418-1.335-1.019-1.765-1.739C2.173,8.856,1.932,7.905,1.932,6.963c0.007-1.094,0.38-2.181,1.04-3.046
	c0.403-0.503,0.882-0.952,1.439-1.273c0.984-0.59,2.176-0.811,3.301-0.612c1.115,0.172,2.154,0.766,2.901,1.62
	C10.006,4.14,9.398,4.626,8.791,5.113C10.344,5.299,11.897,5.484,13.451,5.67z"/>
</svg>
