<?xml version="1.0" encoding="utf-8"?>
<!-- Generator: Adobe Illustrator 16.0.0, SVG Export Plug-In . SVG Version: 6.00 Build 0)  -->
<!DOCTYPE svg PUBLIC "-//W3C//DTD SVG 1.1//EN" "http://www.w3.org/Graphics/SVG/1.1/DTD/svg11.dtd">
<svg version="1.1" id="Layer_1" xmlns="http://www.w3.org/2000/svg" xmlns:xlink="http://www.w3.org/1999/xlink" x="0px" y="0px"
	 width="14px" height="13px" viewBox="0 0 14 13" enable-background="new 0 0 14 13" xml:space="preserve">
<polygon fill="#FFFFFF" points="8.622,5.676 7,1.916 5.377,5.676 1.873,5.672 4.377,8.073 3.757,11.631 7,9.951 10.243,11.631 
	9.624,8.073 12.128,5.672 "/>
<path fill="#C6C6C6" d="M9.125,4.928L7,0L4.875,4.928L0,4.92l3.561,3.414L2.748,13L7,10.799L11.252,13l-0.812-4.666L14,4.92
	L9.125,4.928z M10.243,11.631L7,9.951l-3.243,1.68l0.62-3.558L1.873,5.672l3.504,0.004L7,1.916l1.622,3.76l3.506-0.004L9.624,8.073
	L10.243,11.631z"/>
</svg>
